<svg width="643" height="760" viewBox="0 0 643 760" fill="none" xmlns="http://www.w3.org/2000/svg">
<rect width="643" height="760" fill="white"/>
<rect width="401" height="300" transform="translate(20 20)" fill="#FF0099"/>
<path d="M204.161 178.088L205.889 179.48H188.417L187.697 174.728L202.961 152.504L211.025 153.128V175.448L209.345 174.2H216.017V179.48H209.345L211.025 178.088V186.92H204.161V178.088ZM205.985 174.2L204.305 175.448V156.392L206.609 156.776L193.073 176.648L191.777 174.2H205.985Z" fill="white"/>
<path d="M218.339 183.656C218.339 182.536 218.707 181.64 219.443 180.968C220.211 180.264 221.107 179.912 222.131 179.912C223.315 179.912 224.243 180.264 224.915 180.968C225.619 181.64 225.971 182.536 225.971 183.656C225.971 184.776 225.587 185.688 224.819 186.392C224.051 187.064 223.155 187.4 222.131 187.4C220.979 187.4 220.051 187.064 219.347 186.392C218.675 185.688 218.339 184.776 218.339 183.656ZM218.339 167.576C218.339 166.456 218.707 165.56 219.443 164.888C220.211 164.184 221.107 163.832 222.131 163.832C223.315 163.832 224.243 164.184 224.915 164.888C225.619 165.56 225.971 166.456 225.971 167.576C225.971 168.696 225.587 169.608 224.819 170.312C224.051 170.984 223.155 171.32 222.131 171.32C220.979 171.32 220.051 170.984 219.347 170.312C218.675 169.608 218.339 168.696 218.339 167.576Z" fill="white"/>
<path d="M239.911 187.496C238.023 187.496 236.151 187.272 234.295 186.824C232.439 186.376 230.679 185.704 229.015 184.808L230.791 180.008C232.231 180.68 233.703 181.208 235.207 181.592C236.743 181.976 238.215 182.168 239.623 182.168C240.903 182.168 242.039 181.992 243.031 181.64C244.055 181.256 244.855 180.68 245.431 179.912C246.039 179.112 246.343 178.104 246.343 176.888C246.343 175.832 246.103 174.936 245.623 174.2C245.143 173.432 244.407 172.856 243.415 172.472C242.423 172.056 241.159 171.848 239.623 171.848H235.399V167H239.383C241.463 167 243.031 166.6 244.087 165.8C245.175 164.968 245.719 163.768 245.719 162.2C245.719 160.504 245.159 159.304 244.039 158.6C242.951 157.864 241.575 157.496 239.911 157.496C238.919 157.496 237.943 157.592 236.983 157.784C236.023 157.976 235.079 158.232 234.151 158.552L235.063 157.64L234.439 162.632H230.359L229.975 154.52C231.895 153.88 233.815 153.4 235.735 153.08C237.687 152.728 239.559 152.552 241.351 152.552C243.495 152.552 245.415 152.84 247.111 153.416C248.839 153.96 250.199 154.856 251.191 156.104C252.183 157.32 252.679 158.968 252.679 161.048C252.679 163.512 251.927 165.448 250.423 166.856C248.951 168.232 246.871 169.08 244.183 169.4L243.943 168.824C247.143 169.048 249.495 169.864 250.999 171.272C252.535 172.68 253.303 174.632 253.303 177.128C253.303 178.92 252.951 180.472 252.247 181.784C251.543 183.064 250.567 184.136 249.319 185C248.071 185.864 246.631 186.504 244.999 186.92C243.399 187.304 241.703 187.496 239.911 187.496Z" fill="white"/>
<rect width="200" height="300" transform="translate(423 20)" fill="#0099FF"/>
<path d="M491.947 186.896V181.136C495.595 178.128 498.571 175.552 500.875 173.408C503.211 171.264 504.939 169.344 506.059 167.648C507.179 165.92 507.739 164.224 507.739 162.56C507.739 160.896 507.211 159.664 506.155 158.864C505.099 158.064 503.755 157.664 502.123 157.664C501.355 157.664 500.523 157.76 499.627 157.952C498.731 158.112 497.803 158.352 496.843 158.672L497.611 157.52L496.747 162.944H492.667L492.139 154.352C494.123 153.744 496.059 153.296 497.947 153.008C499.835 152.688 501.611 152.528 503.275 152.528C505.547 152.528 507.563 152.832 509.323 153.44C511.083 154.048 512.459 155.024 513.451 156.368C514.443 157.712 514.939 159.456 514.939 161.6C514.939 163.936 514.347 166.176 513.163 168.32C511.979 170.464 510.267 172.672 508.027 174.944C505.787 177.184 503.067 179.632 499.867 182.288V181.52H515.659V186.896H491.947Z" fill="white"/>
<path d="M519.09 183.632C519.09 182.512 519.458 181.616 520.194 180.944C520.962 180.24 521.858 179.888 522.882 179.888C524.066 179.888 524.994 180.24 525.666 180.944C526.37 181.616 526.722 182.512 526.722 183.632C526.722 184.752 526.338 185.664 525.57 186.368C524.802 187.04 523.906 187.376 522.882 187.376C521.73 187.376 520.802 187.04 520.098 186.368C519.426 185.664 519.09 184.752 519.09 183.632ZM519.09 167.552C519.09 166.432 519.458 165.536 520.194 164.864C520.962 164.16 521.858 163.808 522.882 163.808C524.066 163.808 524.994 164.16 525.666 164.864C526.37 165.536 526.722 166.432 526.722 167.552C526.722 168.672 526.338 169.584 525.57 170.288C524.802 170.96 523.906 171.296 522.882 171.296C521.73 171.296 520.802 170.96 520.098 170.288C519.426 169.584 519.09 168.672 519.09 167.552Z" fill="white"/>
<path d="M540.661 187.472C538.773 187.472 536.901 187.248 535.045 186.8C533.189 186.352 531.429 185.68 529.765 184.784L531.541 179.984C532.981 180.656 534.453 181.184 535.957 181.568C537.493 181.952 538.965 182.144 540.373 182.144C541.653 182.144 542.789 181.968 543.781 181.616C544.805 181.232 545.605 180.656 546.181 179.888C546.789 179.088 547.093 178.08 547.093 176.864C547.093 175.808 546.853 174.912 546.373 174.176C545.893 173.408 545.157 172.832 544.165 172.448C543.173 172.032 541.909 171.824 540.373 171.824H536.149V166.976H540.133C542.213 166.976 543.781 166.576 544.837 165.776C545.925 164.944 546.469 163.744 546.469 162.176C546.469 160.48 545.909 159.28 544.789 158.576C543.701 157.84 542.325 157.472 540.661 157.472C539.669 157.472 538.693 157.568 537.733 157.76C536.773 157.952 535.829 158.208 534.901 158.528L535.813 157.616L535.189 162.608H531.109L530.725 154.496C532.645 153.856 534.565 153.376 536.485 153.056C538.437 152.704 540.309 152.528 542.101 152.528C544.245 152.528 546.165 152.816 547.861 153.392C549.589 153.936 550.949 154.832 551.941 156.08C552.933 157.296 553.429 158.944 553.429 161.024C553.429 163.488 552.677 165.424 551.173 166.832C549.701 168.208 547.621 169.056 544.933 169.376L544.693 168.8C547.893 169.024 550.245 169.84 551.749 171.248C553.285 172.656 554.053 174.608 554.053 177.104C554.053 178.896 553.701 180.448 552.997 181.76C552.293 183.04 551.317 184.112 550.069 184.976C548.821 185.84 547.381 186.48 545.749 186.896C544.149 187.28 542.453 187.472 540.661 187.472Z" fill="white"/>
<rect width="300" height="200" transform="translate(20 540)" fill="#FF0099"/>
<path d="M150.191 657.472C148.303 657.472 146.431 657.248 144.575 656.8C142.719 656.352 140.959 655.68 139.295 654.784L141.071 649.984C142.511 650.656 143.983 651.184 145.487 651.568C147.023 651.952 148.495 652.144 149.903 652.144C151.183 652.144 152.319 651.968 153.311 651.616C154.335 651.232 155.135 650.656 155.711 649.888C156.319 649.088 156.623 648.08 156.623 646.864C156.623 645.808 156.383 644.912 155.903 644.176C155.423 643.408 154.687 642.832 153.695 642.448C152.703 642.032 151.439 641.824 149.903 641.824H145.679V636.976H149.663C151.743 636.976 153.311 636.576 154.367 635.776C155.455 634.944 155.999 633.744 155.999 632.176C155.999 630.48 155.439 629.28 154.319 628.576C153.231 627.84 151.855 627.472 150.191 627.472C149.199 627.472 148.223 627.568 147.263 627.76C146.303 627.952 145.359 628.208 144.431 628.528L145.343 627.616L144.719 632.608H140.639L140.255 624.496C142.175 623.856 144.095 623.376 146.015 623.056C147.967 622.704 149.839 622.528 151.631 622.528C153.775 622.528 155.695 622.816 157.391 623.392C159.119 623.936 160.479 624.832 161.471 626.08C162.463 627.296 162.959 628.944 162.959 631.024C162.959 633.488 162.207 635.424 160.703 636.832C159.231 638.208 157.151 639.056 154.463 639.376L154.223 638.8C157.423 639.024 159.775 639.84 161.279 641.248C162.815 642.656 163.583 644.608 163.583 647.104C163.583 648.896 163.231 650.448 162.527 651.76C161.823 653.04 160.847 654.112 159.599 654.976C158.351 655.84 156.911 656.48 155.279 656.896C153.679 657.28 151.983 657.472 150.191 657.472Z" fill="white"/>
<path d="M165.745 653.632C165.745 652.512 166.113 651.616 166.849 650.944C167.617 650.24 168.513 649.888 169.537 649.888C170.721 649.888 171.649 650.24 172.321 650.944C173.025 651.616 173.377 652.512 173.377 653.632C173.377 654.752 172.993 655.664 172.225 656.368C171.457 657.04 170.561 657.376 169.537 657.376C168.385 657.376 167.457 657.04 166.753 656.368C166.081 655.664 165.745 654.752 165.745 653.632ZM165.745 637.552C165.745 636.432 166.113 635.536 166.849 634.864C167.617 634.16 168.513 633.808 169.537 633.808C170.721 633.808 171.649 634.16 172.321 634.864C173.025 635.536 173.377 636.432 173.377 637.552C173.377 638.672 172.993 639.584 172.225 640.288C171.457 640.96 170.561 641.296 169.537 641.296C168.385 641.296 167.457 640.96 166.753 640.288C166.081 639.584 165.745 638.672 165.745 637.552Z" fill="white"/>
<path d="M176.993 656.896V651.136C180.641 648.128 183.617 645.552 185.921 643.408C188.257 641.264 189.985 639.344 191.105 637.648C192.225 635.92 192.785 634.224 192.785 632.56C192.785 630.896 192.257 629.664 191.201 628.864C190.145 628.064 188.801 627.664 187.169 627.664C186.401 627.664 185.569 627.76 184.673 627.952C183.777 628.112 182.849 628.352 181.889 628.672L182.657 627.52L181.793 632.944H177.713L177.185 624.352C179.169 623.744 181.105 623.296 182.993 623.008C184.881 622.688 186.657 622.528 188.321 622.528C190.593 622.528 192.609 622.832 194.369 623.44C196.129 624.048 197.505 625.024 198.497 626.368C199.489 627.712 199.985 629.456 199.985 631.6C199.985 633.936 199.393 636.176 198.209 638.32C197.025 640.464 195.313 642.672 193.073 644.944C190.833 647.184 188.113 649.632 184.913 652.288V651.52H200.705V656.896H176.993Z" fill="white"/>
<rect width="300" height="200" transform="translate(323 540)" fill="#0099FF"/>
<path d="M453.191 657.472C451.303 657.472 449.431 657.248 447.575 656.8C445.719 656.352 443.959 655.68 442.295 654.784L444.071 649.984C445.511 650.656 446.983 651.184 448.487 651.568C450.023 651.952 451.495 652.144 452.903 652.144C454.183 652.144 455.319 651.968 456.311 651.616C457.335 651.232 458.135 650.656 458.711 649.888C459.319 649.088 459.623 648.08 459.623 646.864C459.623 645.808 459.383 644.912 458.903 644.176C458.423 643.408 457.687 642.832 456.695 642.448C455.703 642.032 454.439 641.824 452.903 641.824H448.679V636.976H452.663C454.743 636.976 456.311 636.576 457.367 635.776C458.455 634.944 458.999 633.744 458.999 632.176C458.999 630.48 458.439 629.28 457.319 628.576C456.231 627.84 454.855 627.472 453.191 627.472C452.199 627.472 451.223 627.568 450.263 627.76C449.303 627.952 448.359 628.208 447.431 628.528L448.343 627.616L447.719 632.608H443.639L443.255 624.496C445.175 623.856 447.095 623.376 449.015 623.056C450.967 622.704 452.839 622.528 454.631 622.528C456.775 622.528 458.695 622.816 460.391 623.392C462.119 623.936 463.479 624.832 464.471 626.08C465.463 627.296 465.959 628.944 465.959 631.024C465.959 633.488 465.207 635.424 463.703 636.832C462.231 638.208 460.151 639.056 457.463 639.376L457.223 638.8C460.423 639.024 462.775 639.84 464.279 641.248C465.815 642.656 466.583 644.608 466.583 647.104C466.583 648.896 466.231 650.448 465.527 651.76C464.823 653.04 463.847 654.112 462.599 654.976C461.351 655.84 459.911 656.48 458.279 656.896C456.679 657.28 454.983 657.472 453.191 657.472Z" fill="white"/>
<path d="M468.745 653.632C468.745 652.512 469.113 651.616 469.849 650.944C470.617 650.24 471.513 649.888 472.537 649.888C473.721 649.888 474.649 650.24 475.321 650.944C476.025 651.616 476.377 652.512 476.377 653.632C476.377 654.752 475.993 655.664 475.225 656.368C474.457 657.04 473.561 657.376 472.537 657.376C471.385 657.376 470.457 657.04 469.753 656.368C469.081 655.664 468.745 654.752 468.745 653.632ZM468.745 637.552C468.745 636.432 469.113 635.536 469.849 634.864C470.617 634.16 471.513 633.808 472.537 633.808C473.721 633.808 474.649 634.16 475.321 634.864C476.025 635.536 476.377 636.432 476.377 637.552C476.377 638.672 475.993 639.584 475.225 640.288C474.457 640.96 473.561 641.296 472.537 641.296C471.385 641.296 470.457 640.96 469.753 640.288C469.081 639.584 468.745 638.672 468.745 637.552Z" fill="white"/>
<path d="M479.993 656.896V651.136C483.641 648.128 486.617 645.552 488.921 643.408C491.257 641.264 492.985 639.344 494.105 637.648C495.225 635.92 495.785 634.224 495.785 632.56C495.785 630.896 495.257 629.664 494.201 628.864C493.145 628.064 491.801 627.664 490.169 627.664C489.401 627.664 488.569 627.76 487.673 627.952C486.777 628.112 485.849 628.352 484.889 628.672L485.657 627.52L484.793 632.944H480.713L480.185 624.352C482.169 623.744 484.105 623.296 485.993 623.008C487.881 622.688 489.657 622.528 491.321 622.528C493.593 622.528 495.609 622.832 497.369 623.44C499.129 624.048 500.505 625.024 501.497 626.368C502.489 627.712 502.985 629.456 502.985 631.6C502.985 633.936 502.393 636.176 501.209 638.32C500.025 640.464 498.313 642.672 496.073 644.944C493.833 647.184 491.113 649.632 487.913 652.288V651.52H503.705V656.896H479.993Z" fill="white"/>
<rect width="216" height="216" transform="translate(20 322)" fill="#0099FF"/>
<path d="M117.455 443.68L116.159 441.904L122.447 443.296V446.752H104.447V443.296L111.935 442L110.591 443.68V418.624L112.463 418.72L104.495 423.136L102.287 418.96L111.743 412.768H117.455V443.68Z" fill="white"/>
<path d="M124.774 443.488C124.774 442.368 125.142 441.472 125.878 440.8C126.646 440.096 127.542 439.744 128.566 439.744C129.75 439.744 130.678 440.096 131.35 440.8C132.054 441.472 132.406 442.368 132.406 443.488C132.406 444.608 132.022 445.52 131.254 446.224C130.486 446.896 129.59 447.232 128.566 447.232C127.414 447.232 126.486 446.896 125.782 446.224C125.11 445.52 124.774 444.608 124.774 443.488ZM124.774 427.408C124.774 426.288 125.142 425.392 125.878 424.72C126.646 424.016 127.542 423.664 128.566 423.664C129.75 423.664 130.678 424.016 131.35 424.72C132.054 425.392 132.406 426.288 132.406 427.408C132.406 428.528 132.022 429.44 131.254 430.144C130.486 430.816 129.59 431.152 128.566 431.152C127.414 431.152 126.486 430.816 125.782 430.144C125.11 429.44 124.774 428.528 124.774 427.408Z" fill="white"/>
<path d="M148.721 443.68L147.425 441.904L153.713 443.296V446.752H135.713V443.296L143.201 442L141.857 443.68V418.624L143.729 418.72L135.761 423.136L133.553 418.96L143.009 412.768H148.721V443.68Z" fill="white"/>
<rect width="384" height="216" transform="translate(238 322)" fill="#FF0099"/>
<path d="M402.416 443.824L401.12 442.048L407.408 443.44V446.896H389.408V443.44L396.896 442.144L395.552 443.824V418.768L397.424 418.864L389.456 423.28L387.248 419.104L396.704 412.912H402.416V443.824Z" fill="white"/>
<path d="M415.743 433.264L415.455 428.752C416.831 427.952 418.271 427.312 419.775 426.832C421.311 426.32 422.879 426.064 424.479 426.064C426.367 426.064 428.079 426.448 429.615 427.216C431.183 427.952 432.431 429.072 433.359 430.576C434.287 432.048 434.751 433.888 434.751 436.096C434.751 438.496 434.207 440.544 433.119 442.24C432.031 443.936 430.559 445.232 428.703 446.128C426.847 447.024 424.735 447.472 422.367 447.472C419.935 447.472 417.743 446.944 415.791 445.888C413.871 444.832 412.335 443.184 411.183 440.944C410.063 438.672 409.503 435.712 409.503 432.064C409.503 428 410.207 424.512 411.615 421.6C413.023 418.688 414.991 416.448 417.519 414.88C420.047 413.312 422.975 412.528 426.303 412.528C428.191 412.528 430.159 412.8 432.207 413.344L431.727 418.288C430.895 418.096 430.095 417.968 429.327 417.904C428.559 417.84 427.855 417.808 427.215 417.808C424.687 417.808 422.639 418.368 421.071 419.488C419.535 420.576 418.399 422.192 417.663 424.336C416.927 426.48 416.559 429.12 416.559 432.256C416.559 435.648 417.023 438.16 417.951 439.792C418.911 441.392 420.383 442.192 422.367 442.192C423.999 442.192 425.279 441.696 426.207 440.704C427.167 439.712 427.647 438.272 427.647 436.384C427.647 435.136 427.407 434.112 426.927 433.312C426.479 432.512 425.839 431.904 425.007 431.488C424.207 431.072 423.295 430.864 422.271 430.864C421.215 430.864 420.127 431.072 419.007 431.488C417.887 431.872 416.799 432.464 415.743 433.264Z" fill="white"/>
<path d="M437.766 443.632C437.766 442.512 438.134 441.616 438.87 440.944C439.638 440.24 440.534 439.888 441.558 439.888C442.742 439.888 443.67 440.24 444.342 440.944C445.046 441.616 445.398 442.512 445.398 443.632C445.398 444.752 445.014 445.664 444.246 446.368C443.478 447.04 442.582 447.376 441.558 447.376C440.406 447.376 439.478 447.04 438.774 446.368C438.102 445.664 437.766 444.752 437.766 443.632ZM437.766 427.552C437.766 426.432 438.134 425.536 438.87 424.864C439.638 424.16 440.534 423.808 441.558 423.808C442.742 423.808 443.67 424.16 444.342 424.864C445.046 425.536 445.398 426.432 445.398 427.552C445.398 428.672 445.014 429.584 444.246 430.288C443.478 430.96 442.582 431.296 441.558 431.296C440.406 431.296 439.478 430.96 438.774 430.288C438.102 429.584 437.766 428.672 437.766 427.552Z" fill="white"/>
<path d="M466.464 426.688L466.8 431.248C465.456 432.048 464.016 432.704 462.48 433.216C460.944 433.728 459.36 433.984 457.728 433.984C455.744 433.984 453.984 433.6 452.448 432.832C450.912 432.032 449.712 430.88 448.848 429.376C447.984 427.872 447.536 426.08 447.504 424C447.504 421.568 448.032 419.504 449.088 417.808C450.176 416.112 451.648 414.816 453.504 413.92C455.392 412.992 457.52 412.528 459.888 412.528C462.32 412.528 464.496 413.056 466.416 414.112C468.368 415.136 469.904 416.784 471.024 419.056C472.176 421.328 472.752 424.304 472.752 427.984C472.752 431.952 472.048 435.408 470.64 438.352C469.264 441.264 467.312 443.52 464.784 445.12C462.288 446.688 459.328 447.472 455.904 447.472C454.048 447.472 452.096 447.2 450.048 446.656L450.528 441.76C451.36 441.92 452.16 442.048 452.928 442.144C453.696 442.208 454.384 442.24 454.992 442.24C457.552 442.24 459.616 441.696 461.184 440.608C462.752 439.488 463.888 437.856 464.592 435.712C465.328 433.536 465.696 430.88 465.696 427.744C465.696 424.384 465.216 421.888 464.256 420.256C463.328 418.624 461.872 417.808 459.888 417.808C458.256 417.808 456.96 418.32 456 419.344C455.072 420.336 454.608 421.744 454.608 423.568C454.608 424.848 454.832 425.904 455.28 426.736C455.76 427.568 456.4 428.192 457.2 428.608C458 429.024 458.912 429.232 459.936 429.232C461.024 429.232 462.128 429.024 463.248 428.608C464.368 428.16 465.44 427.52 466.464 426.688Z" fill="white"/>
</svg>
